<svg id="ewg0sjz1zjx1" xmlns="http://www.w3.org/2000/svg" xmlns:xlink="http://www.w3.org/1999/xlink" viewBox="0 0 800 800" shape-rendering="geometricPrecision" text-rendering="geometricPrecision"><style><![CDATA[#ewg0sjz1zjx29_tr {animation: ewg0sjz1zjx29_tr__tr 4000ms linear infinite normal forwards}@keyframes ewg0sjz1zjx29_tr__tr { 0% {transform: translate(172.119179px,330.238800px) rotate(0.150106deg)} 30% {transform: translate(172.119179px,330.238800px) rotate(-13.121548deg)} 62.500000% {transform: translate(172.119179px,330.238800px) rotate(0.150000deg)} 100% {transform: translate(172.119179px,330.238800px) rotate(0.150000deg)} }]]></style><g id="ewg0sjz1zjx2"><g id="ewg0sjz1zjx3"><path id="ewg0sjz1zjx4" d="M266.780000,611.050000C266.780000,611.050000,264.060000,615.250000,261.870000,627.290000C259.680000,639.330000,266.960000,632.530000,268.230000,632.300000C269.500000,632.070000,268.130000,635.030000,271.260000,634.670000C274.390000,634.310000,292.770000,635.420000,292.740000,613.750000C292.710000,592.090000,269.670000,610.880000,266.780000,611.050000Z" fill="rgb(110,69,52)" stroke="none" stroke-width="1"/><path id="ewg0sjz1zjx5" d="M263.780000,422.160000C263.780000,422.160000,274.240000,511.360000,274.290000,518.420000C274.330000,525.480000,278.540000,534.590000,278.840000,540.230000C281.410000,589.050000,269.190000,607.540000,269.020000,607.750000C251.250000,629.210000,293.260000,610.570000,295.070000,617.860000C295.070000,617.860000,295.550000,600.880000,299.550000,597.070000C303.550000,593.270000,293.570000,567.120000,295.900000,543.650000C298.230000,520.190000,303.940000,517.330000,303.330000,503.600000C302.720000,489.870000,317.820000,432.470000,323.720000,418.060000C329.640000,403.660000,263.780000,422.160000,263.780000,422.160000Z" fill="rgb(214,214,214)" stroke="none" stroke-width="1"/><path id="ewg0sjz1zjx6" d="M295.150000,547.080000C291.740000,570.410000,304.320000,591.030000,300.140000,594.640000C295.970000,598.250000,290.920000,621.160000,290.920000,621.160000C290.500000,619.040000,286.800000,619.100000,282.170000,619.730000C282.540000,614.380000,283.370000,605.930000,285.140000,602.950000C287.820000,598.460000,289.340000,555.210000,289.750000,546.820000C290.170000,538.440000,281.920000,529.670000,281.920000,529.670000C281.920000,529.670000,288.580000,524.720000,293.110000,514.820000C297.630000,504.930000,299.640000,482.400000,306.500000,466.780000C310.130000,458.510000,314.080000,455.530000,320.600000,456.100000C312.910000,473.940000,304.440000,495.190000,304.410000,507.400000C304.390000,521.160000,298.560000,523.750000,295.150000,547.080000Z" opacity="0.1" fill="rgb(141,140,139)" stroke="none" stroke-width="1"/><path id="ewg0sjz1zjx7" d="M521.430000,605.980000C521.430000,605.980000,516.860000,612.950000,514.130000,624.880000C511.390000,636.810000,518.970000,630.350000,520.260000,630.180000C521.540000,630.010000,520.030000,632.900000,523.180000,632.690000C526.320000,632.480000,544.630000,634.420000,545.600000,612.780000C546.550000,591.120000,524.320000,605.930000,521.430000,605.980000Z" fill="rgb(110,69,52)" stroke="none" stroke-width="1"/><path id="ewg0sjz1zjx8" d="M584.210000,502.770000C588.370000,512.770000,571.930000,529.480000,564.890000,547.560000C557.860000,565.640000,550.650000,587.070000,554.440000,594.800000C557.200000,600.410000,546.260000,605.500000,545.580000,612.760000C545.400000,614.640000,541.240000,612.030000,535.220000,610.480000C530.460000,609.250000,524.510000,608.700000,518.490000,611.630000C516.480000,612.630000,528.680000,588.110000,531.800000,582.690000C534.920000,577.270000,544.620000,550.030000,543.600000,541.750000C542.590000,533.480000,533.630000,463.570000,529.610000,458.180000C525.590000,452.780000,584.530000,446.840000,584.530000,446.840000C584.530000,446.840000,582.610000,466.520000,582.450000,482.920000C582.360000,491.580000,582.780000,499.320000,584.210000,502.770000Z" fill="rgb(214,214,214)" stroke="none" stroke-width="1"/><path id="ewg0sjz1zjx9" d="M564.900000,547.570000C557.870000,565.650000,550.660000,587.080000,554.450000,594.810000C557.210000,600.420000,546.270000,605.510000,545.590000,612.770000C545.410000,614.650000,541.250000,612.040000,535.230000,610.490000C537.380000,602.240000,543.030000,601.440000,544.040000,593.600000C545.260000,584.140000,558.820000,538.360000,559.780000,530.240000C560.740000,522.120000,542.740000,482.190000,542.740000,482.190000C553.860000,460.020000,570.860000,468.610000,582.450000,482.930000C582.370000,491.580000,582.780000,499.320000,584.220000,502.770000C588.370000,512.770000,571.930000,529.480000,564.900000,547.570000Z" fill="rgb(204,204,204)" stroke="none" stroke-width="1"/><path id="ewg0sjz1zjx10" d="M609.060000,611.700000C609.060000,611.700000,606.150000,615.770000,603.410000,627.700000C600.670000,639.630000,608.250000,633.170000,609.530000,633C610.810000,632.830000,609.300000,635.720000,612.450000,635.510000C615.590000,635.300000,633.900000,637.240000,634.870000,615.600000C635.840000,593.940000,611.950000,611.660000,609.060000,611.700000Z" fill="rgb(110,69,52)" stroke="none" stroke-width="1"/><path id="ewg0sjz1zjx11" d="M506.830000,451.730000C494.390000,469.020000,571.490000,534.300000,594.160000,468.080000C621.500000,388.210000,541.790000,403.140000,506.830000,451.730000Z" fill="rgb(237,147,147)" stroke="none" stroke-width="1"/><path id="ewg0sjz1zjx12" d="M504.430000,442.640000C491.990000,459.930000,569.090000,525.210000,591.760000,458.990000C619.100000,379.120000,539.390000,394.050000,504.430000,442.640000Z" fill="rgb(255,165,165)" stroke="none" stroke-width="1"/><path id="ewg0sjz1zjx13" d="M663.650000,362.260000C662.910000,372.500000,661.120000,382.920000,658.950000,392.430000C654.790000,410.610000,649.200000,425.540000,646.680000,429.890000C645.220000,432.420000,643.660000,436.030000,642.170000,440.380000C636.980000,455.540000,632.740000,479.510000,637.100000,496.440000C642.690000,518.230000,636.780000,520.420000,634.520000,528.270000C632.260000,536.110000,631.650000,579.450000,634.850000,583.950000C638.060000,588.450000,640.780000,599.120000,637.200000,602.490000C633.630000,605.850000,635.420000,616.450000,635.420000,616.450000C635.420000,616.450000,636.400000,624.200000,632.920000,619.850000C631.110000,617.590000,629.170000,615.870000,627.220000,614.590000C618.350000,608.750000,609.090000,611.710000,609.090000,611.710000C613.500000,604.360000,617.400000,546.200000,608.390000,535.070000C605.140000,531.070000,602.220000,523.210000,599.260000,513.880000L599.260000,513.870000C597.710000,508.990000,596.160000,503.700000,594.540000,498.350000C594.540000,498.330000,594.530000,498.310000,594.530000,498.290000C590.680000,485.510000,586.470000,472.370000,581.230000,463.490000C569.600000,443.790000,519.780000,458.530000,477.310000,475.580000C434.850000,492.640000,328.110000,476.690000,306.230000,478.650000C284.370000,480.590000,269.040000,481.300000,243.640000,471.640000C218.220000,461.990000,205.950000,419.180000,202.940000,399.150000C200.900000,385.500000,184.230000,363.850000,173.850000,351.470000C169,345.700000,165.520000,341.930000,165.520000,341.930000L187.790000,292.630000L193.010000,281.060000C193.010000,281.060000,204.930000,280.470000,221.490000,279.300000C240.170000,277.980000,264.780000,275.930000,284.850000,273.160000C289.130000,272.570000,293.370000,272.270000,297.570000,272.200000C306.120000,272.070000,314.440000,272.900000,322.180000,274.250000C340.390000,277.420000,355.460000,283.410000,363.140000,286.150000C364.770000,286.730000,366.060000,287.160000,366.980000,287.390000C372.180000,288.690000,409.960000,290.570000,440.840000,291.380000C457.880000,291.830000,472.830000,291.950000,479.050000,291.460000C481.610000,291.270000,486.390000,290.980000,492.790000,290.710000C504.960000,290.190000,522.990000,289.740000,542.690000,290.130000C560.180000,290.470000,578.990000,291.480000,596.190000,293.680000C619.080000,296.600000,639.120000,301.640000,649.380000,310.050000C654.790000,314.480000,658.450000,320.630000,660.760000,327.850000C663.940000,337.890000,664.540000,349.970000,663.650000,362.260000Z" fill="rgb(233,233,233)" stroke="none" stroke-width="1"/><path id="ewg0sjz1zjx14" d="M652.850000,313.450000C652.850000,313.450000,683.540000,346.790000,688.810000,454.030000C689.930000,476.680000,691.570000,492.900000,693.480000,504.390000C699.310000,539.480000,697.170000,547.580000,692.760000,522.750000C692.420000,520.820000,692.060000,518.690000,691.690000,516.370000C691,511.990000,688.550000,508.990000,687.790000,503.170000C686.980000,496.890000,685.310000,486.670000,684.860000,477.930000C680.930000,401.370000,665.480000,349.140000,655.310000,352.780000L652.850000,313.450000Z" fill="rgb(233,233,233)" stroke="none" stroke-width="1"/><path id="ewg0sjz1zjx15" d="M579.090000,349.260000C572.970000,348.640000,562.130000,375.570000,548.760000,373.580000C535.390000,371.590000,525.460000,338.260000,536.690000,328.860000C543.190000,323.420000,543.520000,304.830000,542.650000,290.140000C560.140000,290.480000,578.950000,291.490000,596.150000,293.690000C598.030000,308.040000,594.980000,326.010000,597.780000,332.820000C601.830000,342.650000,585.210000,349.890000,579.090000,349.260000Z" fill="rgb(12,12,12)" stroke="none" stroke-width="1"/><path id="ewg0sjz1zjx16" d="M499.560000,382.110000C466.770000,373.690000,475.280000,370.640000,475.640000,360.910000C475.990000,351.180000,469.020000,346.190000,462.730000,346.330000C456.440000,346.470000,450.390000,382.640000,456.440000,397.380000C462.490000,412.120000,484.530000,400.180000,486.630000,417.300000C488.730000,434.410000,428.980000,448.350000,423.040000,438.460000C417.100000,428.570000,415.670000,417.020000,416.300000,415.050000C420.870000,400.840000,408.840000,405.560000,415.660000,386.470000C419.180000,376.620000,411.980000,370.730000,406.830000,369.890000C392.670000,367.580000,398.800000,317.670000,415.840000,312.110000C432.870000,306.550000,430.570000,313.470000,436.330000,307.460000C440.430000,303.170000,439.880000,302.390000,440.830000,291.390000C457.870000,291.840000,472.820000,291.960000,479.040000,291.470000C481.600000,291.280000,486.380000,290.990000,492.780000,290.720000C499.510000,296.290000,510.770000,304.880000,508.140000,314.430000C504.650000,327.090000,506.430000,344.210000,514.070000,346.330000C521.710000,348.450000,523.900000,369.560000,523.900000,369.560000C523.900000,369.560000,532.350000,390.530000,499.560000,382.110000Z" fill="rgb(12,12,12)" stroke="none" stroke-width="1"/><path id="ewg0sjz1zjx17" d="M535.810000,492.980000C535.940000,498.850000,534.180000,503.640000,531.870000,503.700000C529.560000,503.750000,527.590000,499.040000,527.460000,493.170000C527.330000,487.300000,529.090000,482.510000,531.400000,482.460000C533.700000,482.400000,535.680000,487.110000,535.810000,492.980000Z" fill="rgb(237,147,147)" stroke="none" stroke-width="1"/><path id="ewg0sjz1zjx18" d="M548.200000,499.380000C548.330000,505.250000,546.570000,510.040000,544.260000,510.090000C541.950000,510.140000,539.980000,505.430000,539.840000,499.560000C539.710000,493.690000,541.470000,488.900000,543.780000,488.850000C546.090000,488.800000,548.070000,493.510000,548.200000,499.380000Z" fill="rgb(237,147,147)" stroke="none" stroke-width="1"/><path id="ewg0sjz1zjx19" d="M577.060000,499.920000C577.190000,505.790000,575.430000,510.580000,573.120000,510.630000C570.810000,510.680000,568.840000,505.970000,568.710000,500.100000C568.580000,494.230000,570.340000,489.440000,572.650000,489.390000C574.950000,489.340000,576.930000,494.060000,577.060000,499.920000Z" fill="rgb(237,147,147)" stroke="none" stroke-width="1"/><path id="ewg0sjz1zjx20" d="M660.730000,327.860000C639.750000,317.700000,584.620000,297.140000,495,306.140000C377.820000,317.910000,381.480000,322.320000,356.610000,313C331.740000,303.680000,239.790000,283.290000,187.760000,292.620000L192.980000,281.050000C192.980000,281.050000,246.960000,278.380000,284.820000,273.150000C322.680000,267.920000,358.850000,285.370000,366.940000,287.380000C372.140000,288.680000,409.920000,290.560000,440.800000,291.370000C457.840000,291.820000,472.790000,291.940000,479.010000,291.450000C481.570000,291.260000,486.350000,290.970000,492.750000,290.700000C504.920000,290.180000,522.950000,289.730000,542.650000,290.120000C560.140000,290.460000,578.950000,291.470000,596.150000,293.670000C619.040000,296.590000,639.080000,301.630000,649.340000,310.040000C654.760000,314.500000,658.420000,320.650000,660.730000,327.860000Z" fill="rgb(255,255,255)" stroke="none" stroke-width="1"/><path id="ewg0sjz1zjx21" d="M385.280000,395.910000C382.450000,380.680000,384.170000,376.410000,385,369.320000C387.900000,363.030000,386.050000,354.910000,377.380000,341.090000C360.690000,314.490000,359.140000,318.320000,361.550000,298.250000C362.090000,293.780000,362.630000,289.750000,363.100000,286.150000C355.420000,283.420000,340.360000,277.430000,322.140000,274.250000C325.220000,279.040000,331.400000,290.760000,334.370000,310.870000C338.410000,338.230000,331.450000,333.750000,321.440000,320.850000C313.360000,310.440000,307.980000,285.020000,297.530000,272.210000C293.330000,272.280000,289.080000,272.580000,284.810000,273.170000C264.740000,275.940000,212.940000,286.430000,194.250000,287.750000C197.630000,299.990000,230.870000,315.160000,232.490000,333.280000C234.780000,358.870000,224.360000,379.120000,238.290000,387.960000C240.930000,389.640000,243.040000,390.620000,244.860000,391.190000L244.860000,391.190000C244.860000,391.190000,244.860000,391.190000,244.870000,391.190000C245.270000,391.310000,245.650000,391.410000,246.030000,391.500000C247.810000,392.210000,250.880000,394.520000,249.670000,402.010000C247.990000,412.340000,242.200000,426.580000,248.310000,426.830000C254.420000,427.070000,250.090000,421.070000,257.980000,415.550000C264.350000,411.100000,271.650000,404.140000,273.100000,396.230000C290.430000,405.340000,287.350000,423.450000,308.280000,422.430000C326.500000,421.540000,341.530000,404.210000,357.230000,391.650000C361.330000,393.500000,365.990000,397.240000,367.180000,404.720000C369.400000,418.780000,365.560000,417.720000,369.210000,427.170000C372.850000,436.620000,396.470000,434.640000,398.250000,430.100000C406.190000,409.940000,388.320000,412.240000,385.280000,395.910000Z" fill="rgb(12,12,12)" stroke="none" stroke-width="1"/><path id="ewg0sjz1zjx22" d="M285.870000,617.770000C285.870000,617.770000,282.960000,621.840000,280.220000,633.770000C277.480000,645.700000,285.060000,639.240000,286.340000,639.070000C287.620000,638.900000,286.110000,641.790000,289.260000,641.580000C292.400000,641.370000,310.710000,643.310000,311.680000,621.660000C312.640000,600.010000,288.760000,617.730000,285.870000,617.770000Z" fill="rgb(110,69,52)" stroke="none" stroke-width="1"/><path id="ewg0sjz1zjx23" d="M658.940000,392.430000C654.780000,410.610000,649.190000,425.540000,646.670000,429.890000C645.210000,432.420000,643.650000,436.030000,642.160000,440.380000C628.670000,438.550000,611.400000,435.100000,610.590000,410.900000C609.440000,376.420000,581.650000,395.590000,571.790000,380.700000C566.990000,373.450000,579.900000,351.530000,604.980000,364.700000C630.060000,377.870000,626.270000,397.480000,642.290000,396.290000C649.690000,395.730000,655.200000,393.130000,658.940000,392.430000Z" fill="rgb(12,12,12)" stroke="none" stroke-width="1"/><path id="ewg0sjz1zjx24" d="M687.730000,501.930000C687.730000,501.930000,688.520000,513.320000,686.980000,521.480000C685.450000,529.640000,688.830000,561.770000,701.040000,562.120000C701.040000,562.120000,696.220000,551.290000,699.110000,535.280000C701.990000,519.270000,695.710000,506.430000,692.840000,499.850000C689.980000,493.280000,687.730000,501.930000,687.730000,501.930000Z" fill="rgb(110,69,52)" stroke="none" stroke-width="1"/><path id="ewg0sjz1zjx25" d="M594.500000,498.290000C590.650000,485.510000,586.440000,472.370000,581.200000,463.490000C569.570000,443.790000,519.750000,458.530000,477.280000,475.580000C434.820000,492.640000,328.080000,476.690000,306.200000,478.650000C284.340000,480.590000,269.010000,481.300000,243.610000,471.640000C218.190000,461.990000,205.920000,419.180000,202.910000,399.150000C200.870000,385.500000,184.200000,363.850000,173.820000,351.470000C178.340000,349.840000,183.410000,349.250000,189.030000,349.860000C189.030000,349.860000,221.510000,363.730000,224.200000,402.560000C226.900000,441.390000,275.410000,455.800000,358.850000,459.080000C451.020000,462.700000,467.780000,449.080000,497.420000,440.360000C538.250000,428.330000,580.270000,423.870000,594.500000,498.290000Z" opacity="0.1" fill="rgb(141,140,139)" stroke="none" stroke-width="1"/><path id="ewg0sjz1zjx26" d="M350.450000,437.110000C349.720000,438.680000,348.860000,440.610000,347.910000,442.830000C340.220000,460.670000,326.390000,497.070000,326.360000,509.290000C326.340000,523.040000,320.500000,525.630000,317.100000,548.960000C313.690000,572.290000,322.470000,598.870000,318.300000,602.480000C314.130000,606.090000,312.870000,623.040000,312.870000,623.040000C312.450000,620.920000,308.750000,620.980000,304.120000,621.610000C296.150000,622.710000,285.410000,625.520000,283.800000,621.950000C283.080000,620.370000,284.630000,616.530000,287.310000,611.740000C287.440000,611.510000,287.660000,611.350000,287.840000,611.150000C305.930000,590.350000,299.910000,550.340000,300.210000,544.750000C300.520000,539.110000,296.390000,529.800000,296.660000,522.750000C296.950000,515.710000,279.250000,425.550000,279.250000,425.550000C279.250000,425.550000,357,422.980000,350.450000,437.110000Z" fill="rgb(233,233,233)" stroke="none" stroke-width="1"/><path id="ewg0sjz1zjx27" d="M599.250000,513.910000C599.930000,514.820000,600.560000,515.760000,601.140000,516.700000C600.100000,515.220000,599.400000,514.140000,599.250000,513.910000Z" fill="rgb(224,224,224)" stroke="none" stroke-width="1"/><path id="ewg0sjz1zjx28" d="M663.650000,362.260000C662.910000,372.500000,661.120000,382.920000,658.950000,392.430000C654.790000,410.610000,649.200000,425.540000,646.680000,429.890000C645.220000,432.420000,643.660000,436.030000,642.170000,440.380000C636.980000,455.540000,632.740000,479.510000,637.100000,496.440000C642.690000,518.230000,636.780000,520.420000,634.520000,528.270000C632.260000,536.110000,631.650000,579.450000,634.850000,583.950000C638.060000,588.450000,640.780000,599.120000,637.200000,602.490000C633.630000,605.850000,635.420000,616.450000,635.420000,616.450000C635.420000,616.450000,636.400000,624.200000,632.920000,619.850000C631.110000,617.590000,629.170000,615.870000,627.220000,614.590000C626.320000,611.220000,625.790000,607,625.740000,601.800000C625.640000,590.260000,627.030000,559,616.250000,544.050000C608.200000,532.880000,605.790000,524.200000,601.190000,516.750000C604.950000,522.080000,613.170000,532.460000,616.730000,526.880000C621.420000,519.530000,622.130000,459.360000,630.680000,443.870000C638.850000,429.030000,658.550000,382.090000,663.650000,362.260000Z" opacity="0.1" fill="rgb(141,140,139)" stroke="none" stroke-width="1"/><g id="ewg0sjz1zjx29_tr" transform="translate(172.119179,330.238800) rotate(0.150106)"><g id="ewg0sjz1zjx29" transform="translate(-172.119179,-330.238800)"><path id="ewg0sjz1zjx30" d="M143.070000,270.250000C143.070000,270.250000,126.960000,278.640000,122.310000,268.170000C117.670000,257.700000,92.460000,253.680000,87.270000,257.850000C82.080000,262.020000,88.100000,294.820000,135.890000,289.120000C183.680000,283.430000,143.070000,270.250000,143.070000,270.250000Z" fill="rgb(0,0,0)" stroke="none" stroke-width="1"/><path id="ewg0sjz1zjx31" d="M137.770000,268.850000C137.770000,268.850000,125.670000,267.730000,114.710000,248.450000C110.860000,241.690000,110.610000,267.370000,128.850000,278.040000C134.970000,281.620000,142.140000,272.940000,137.770000,268.850000Z" fill="rgb(196,160,107)" stroke="none" stroke-width="1"/><path id="ewg0sjz1zjx32" d="M127.380000,387.330000C126.130000,396.480000,125.050000,405.020000,125.620000,409.100000C126.780000,417.320000,145.970000,416.890000,159.550000,418.920000C168.170000,420.180000,174.080000,412.460000,178.440000,403.900000L178.460000,403.870000C180.970000,398.970000,182.970000,393.800000,184.680000,389.910000C189.390000,379.230000,207.390000,370.890000,217.090000,361.400000C226.790000,351.900000,217.150000,297.820000,216.960000,296.340000C213.170000,268.930000,196.360000,261.770000,187.450000,261.680000C178.510000,261.620000,169.680000,265.990000,152.770000,263.090000C135.860000,260.140000,131.140000,271.160000,132.230000,275.100000C133.300000,279.040000,131.290000,292.310000,124.620000,305.010000C117.950000,317.720000,130.220000,348.510000,130.190000,361.410000C130.150000,367.940000,128.680000,377.940000,127.380000,387.330000Z" fill="rgb(0,0,0)" stroke="none" stroke-width="1"/><path id="ewg0sjz1zjx33" d="M151.380000,388.370000C151.380000,388.370000,152.530000,341.200000,162.910000,332.590000C173.290000,323.990000,194.340000,299.940000,189.240000,288.600000C184.140000,277.260000,178.750000,272.530000,165.200000,277.680000C151.660000,282.830000,149.950000,278.240000,144.720000,278.140000C140.530000,278.050000,134.140000,282.460000,131.290000,300.900000C128.400000,319.640000,134.560000,326.580000,134.700000,335.410000C134.820000,342.860000,136.750000,373.710000,131.100000,387.710000L151.380000,388.370000Z" fill="rgb(233,233,233)" stroke="none" stroke-width="1"/><path id="ewg0sjz1zjx34" d="M179.360000,331.700000C179.420000,334.600000,181.820000,336.890000,184.720000,336.830000C187.620000,336.770000,189.910000,334.370000,189.850000,331.470000C189.780000,328.580000,187.390000,326.280000,184.490000,326.350000C181.590000,326.410000,179.290000,328.810000,179.360000,331.700000Z" fill="rgb(233,233,233)" stroke="none" stroke-width="1"/><path id="ewg0sjz1zjx35" d="M179.530000,330.280000C179.590000,332.820000,181.690000,334.830000,184.230000,334.770000C186.770000,334.710000,188.780000,332.610000,188.720000,330.070000C188.660000,327.530000,186.560000,325.520000,184.020000,325.580000C181.490000,325.650000,179.470000,327.750000,179.530000,330.280000Z" fill="rgb(0,0,0)" stroke="none" stroke-width="1"/><path id="ewg0sjz1zjx36" d="M185.320000,329.480000C185.330000,330.110000,185.860000,330.610000,186.490000,330.600000C187.120000,330.590000,187.620000,330.060000,187.610000,329.430000C187.600000,328.800000,187.070000,328.300000,186.440000,328.310000C185.810000,328.330000,185.310000,328.850000,185.320000,329.480000Z" fill="rgb(255,255,255)" stroke="none" stroke-width="1"/><path id="ewg0sjz1zjx37" d="M125.470000,410.170000C126.630000,418.390000,146.180000,417.680000,159.760000,419.700000C168.380000,420.960000,174.080000,412.460000,178.440000,403.900000L178.460000,403.870000C184.570000,387.470000,173.150000,386.090000,162.990000,385.890000C152.860000,385.670000,152.500000,370.690000,152.500000,370.690000C152.500000,370.690000,133.900000,365.160000,134.340000,372.150000C134.660000,377.030000,131.110000,382.720000,127.380000,387.320000C124.690000,396.260000,124.900000,406.090000,125.470000,410.170000Z" fill="rgb(233,233,233)" stroke="none" stroke-width="1"/><path id="ewg0sjz1zjx38" d="M201.550000,272.980000C201.550000,272.980000,218.020000,280.640000,222.190000,269.970000C226.360000,259.300000,251.360000,254.170000,256.730000,258.100000C262.110000,262.030000,257.620000,294.040000,209.560000,291.510000C176.670000,289.780000,201.550000,272.980000,201.550000,272.980000Z" fill="rgb(0,0,0)" stroke="none" stroke-width="1"/><path id="ewg0sjz1zjx39" d="M155.470000,407.410000C155.470000,407.410000,159.630000,395.020000,164.680000,397.340000C169.740000,399.660000,155.570000,405.550000,155.470000,407.410000Z" fill="rgb(0,0,0)" stroke="none" stroke-width="1"/><path id="ewg0sjz1zjx40" d="M161.840000,397.080000C161.840000,397.080000,153.430000,399.730000,143.960000,398.370000C134.490000,397.010000,128.650000,391.560000,129.040000,395.990000C129.420000,400.410000,133.900000,402.170000,133.260000,405.760000C132.630000,409.350000,127.910000,411.240000,132.870000,413.780000C137.830000,416.320000,161.870000,419,161.520000,416C161.170000,413,154.660000,409.720000,156.040000,407.400000C157.420000,405.080000,167.750000,397.630000,161.840000,397.080000Z" fill="rgb(0,0,0)" stroke="none" stroke-width="1"/><path id="ewg0sjz1zjx41" d="M193.180000,268.440000C193.180000,268.440000,207.990000,266.390000,220.410000,242.090000C224.770000,233.570000,226.490000,265.120000,204.650000,279.240000C197.320000,283.980000,188.030000,273.700000,193.180000,268.440000Z" fill="rgb(196,160,107)" stroke="none" stroke-width="1"/><path id="ewg0sjz1zjx42" d="M193.180000,268.440000C193.180000,268.440000,207.110000,266,220.090000,243.670000C224.640000,235.840000,218.550000,267.100000,200.480000,278.140000C194.410000,281.850000,188.600000,272.950000,193.180000,268.440000Z" opacity="0.1" fill="rgb(255,255,255)" stroke="none" stroke-width="1"/><path id="ewg0sjz1zjx43" d="M143.230000,272.050000C143.230000,272.050000,122.840000,269.930000,114.710000,248.450000C111.500000,239.980000,116.970000,271.140000,137.420000,277.550000C144.190000,279.670000,148.010000,276.360000,143.230000,272.050000Z" opacity="0.1" fill="rgb(255,255,255)" stroke="none" stroke-width="1"/><path id="ewg0sjz1zjx44" d="M213.160000,276.080000C213.160000,276.080000,227.800000,278.330000,231.120000,273.530000C234.440000,268.740000,244.380000,259.240000,251.390000,259.350000C251.390000,259.350000,255.280000,254.400000,242.500000,258.260000C229.720000,262.120000,229.600000,263.750000,223.700000,271.150000C217.790000,278.550000,215.600000,276.310000,213.160000,276.080000Z" opacity="0.2" fill="rgb(255,255,255)" stroke="none" stroke-width="1"/><path id="ewg0sjz1zjx45" d="M132.760000,275.830000C132.760000,275.830000,118.240000,278.730000,114.700000,274.090000C111.160000,269.450000,100.810000,260.410000,93.810000,260.830000C93.810000,260.830000,89.700000,256.060000,102.640000,259.350000C115.580000,262.640000,115.770000,264.260000,122,271.390000C128.250000,278.510000,130.340000,276.170000,132.760000,275.830000Z" opacity="0.2" fill="rgb(255,255,255)" stroke="none" stroke-width="1"/></g></g><path id="ewg0sjz1zjx46" d="M317.100000,548.960000C313.690000,572.290000,322.470000,598.870000,318.300000,602.480000C314.130000,606.090000,312.870000,623.040000,312.870000,623.040000C312.450000,620.920000,308.750000,620.980000,304.120000,621.610000C304.490000,616.260000,305.320000,607.810000,307.090000,604.830000C309.770000,600.340000,311.290000,557.090000,311.700000,548.700000C312.120000,540.320000,303.870000,531.550000,303.870000,531.550000C303.870000,531.550000,310.530000,526.600000,315.050000,516.700000C319.570000,506.810000,321.580000,484.280000,328.440000,468.660000C332.070000,460.390000,336.020000,457.410000,342.540000,457.980000C334.850000,475.820000,326.380000,497.070000,326.350000,509.280000C326.340000,523.030000,320.510000,525.630000,317.100000,548.960000Z" opacity="0.1" fill="rgb(141,140,139)" stroke="none" stroke-width="1"/></g></g></svg>